<svg xmlns="http://www.w3.org/2000/svg" xmlns:xlink="http://www.w3.org/1999/xlink" width="218.803" height="218.153" viewBox="0 0 218.803 218.153">
  <defs>
    <linearGradient id="linear-gradient" x1="0.5" x2="0.5" y2="1" gradientUnits="objectBoundingBox">
      <stop offset="0" stop-color="#efd4b9"/>
      <stop offset="1" stop-color="#c2eee9"/>
    </linearGradient>
  </defs>
  <g id="design-graphic" transform="translate(-96.856 -888.009)">
    <path id="Path_8" data-name="Path 8" d="M84.681,0c41.421,0,67.642,31.056,67.642,72.477,0,15.284,2.433,40.175-14.863,58.837-13.27,20.04-33.035,26.4-59.172,26.4C36.867,157.714,0,106.737,0,65.315S43.26,0,84.681,0Z" transform="translate(96.856 1004.785) rotate(-50)" fill="url(#linear-gradient)"/>
    <g id="Group_51" data-name="Group 51" transform="translate(-265.561 719.004)" style="isolation: isolate">
      <g id="Group_50" data-name="Group 50" transform="translate(421.824 212.162)" style="mix-blend-mode: multiply;isolation: isolate">
        <g id="Group_45" data-name="Group 45" transform="translate(24.002 4.588)">
          <circle id="Ellipse_3" data-name="Ellipse 3" cx="18.932" cy="18.932" r="18.932" transform="translate(32.463 4.8)" fill="#fc1381" style="mix-blend-mode: multiply;isolation: isolate"/>
          <circle id="Ellipse_4" data-name="Ellipse 4" cx="18.932" cy="18.932" r="18.932" transform="matrix(0.361, -0.933, 0.933, 0.361, 0, 35.308)" fill="#009fbf" style="mix-blend-mode: multiply;isolation: isolate"/>
          <circle id="Ellipse_5" data-name="Ellipse 5" cx="18.932" cy="18.932" r="18.932" transform="translate(16.704 31.921) rotate(-9.282)" fill="#ffb701" style="mix-blend-mode: multiply;isolation: isolate"/>
        </g>
        <g id="Group_49" data-name="Group 49" transform="translate(0)">
          <rect id="Rectangle_22" data-name="Rectangle 22" width="117.143" height="77.508" transform="translate(2.875 1.849)" fill="none" stroke="#a0a0a0" stroke-miterlimit="10" stroke-width="0.771" stroke-dasharray="5.231"/>
          <g id="Group_48" data-name="Group 48">
            <g id="Group_46" data-name="Group 46" transform="translate(1.413)">
              <rect id="Rectangle_23" data-name="Rectangle 23" width="5.48" height="5.48" fill="#fff" stroke="#222221" stroke-miterlimit="10" stroke-width="1.744"/>
              <rect id="Rectangle_24" data-name="Rectangle 24" width="5.48" height="5.48" transform="translate(115.583)" fill="#fff" stroke="#222221" stroke-miterlimit="10" stroke-width="1.744"/>
            </g>
            <g id="Group_47" data-name="Group 47" transform="translate(0 74.979)">
              <rect id="Rectangle_25" data-name="Rectangle 25" width="5.48" height="5.48" transform="translate(0 1.413)" fill="#122832"/>
              <rect id="Rectangle_26" data-name="Rectangle 26" width="5.48" height="5.48" transform="translate(116.996)" fill="#fff" stroke="#222221" stroke-miterlimit="10" stroke-width="1.744"/>
            </g>
          </g>
        </g>
      </g>
    </g>
    <g id="Group_43" data-name="Group 43" transform="translate(278.99 968.072) rotate(90)">
      <g id="Group_42" data-name="Group 42" transform="translate(113.682 77.783) rotate(90)">
        <g id="Group_35" data-name="Group 35" transform="translate(21.36 0)">
          <g id="Group_34" data-name="Group 34" transform="translate(0 10.598)">
            <path id="Path_32" data-name="Path 32" d="M.045,20.5,19.972,54.42a.237.237,0,0,0,.429-.139V25.354a.23.23,0,0,0-.127-.2,1.6,1.6,0,0,1-.429-2.446.289.289,0,0,1,.059-.059,1.576,1.576,0,0,1,2.626,1.15,1.533,1.533,0,0,1-.807,1.351.246.246,0,0,0-.134.214V54.281a.237.237,0,0,0,.429.139l20-33.227a.237.237,0,0,0,.007-.267L32.142,0H9.849L.038,20.229A.236.236,0,0,0,.045,20.5Z" transform="translate(0 0)" fill="#122832"/>
          </g>
          <path id="Rectangle_12" data-name="Rectangle 12" d="M.308,0H22.349a.308.308,0,0,1,.308.308V8.184A1.558,1.558,0,0,1,21.1,9.742H1.558A1.558,1.558,0,0,1,0,8.184V.308A.308.308,0,0,1,.308,0Z" transform="translate(9.667 0)" fill="#122832"/>
        </g>
        <g id="Group_41" data-name="Group 41" transform="translate(0 39.46)">
          <g id="Group_38" data-name="Group 38" transform="translate(9.707 0)">
            <g id="Group_36" data-name="Group 36" transform="translate(1.843 1.434)">
              <path id="Path_33" data-name="Path 33" d="M30.718,30.718A30.717,30.717,0,0,0,0,0" transform="translate(30.718 31.128)" fill="none" stroke="#ffb701" stroke-miterlimit="10" stroke-width="1.497"/>
              <path id="Path_34" data-name="Path 34" d="M0,0A30.719,30.719,0,0,0,30.718,30.718" transform="translate(0 0)" fill="none" stroke="#ffb701" stroke-miterlimit="10" stroke-width="1.497"/>
            </g>
            <g id="Group_37" data-name="Group 37">
              <rect id="Rectangle_13" data-name="Rectangle 13" width="4.505" height="4.505" transform="translate(61.026 60.617)" fill="#122832"/>
              <rect id="Rectangle_14" data-name="Rectangle 14" width="4.505" height="4.505" transform="translate(0 0)" fill="#122832"/>
            </g>
          </g>
          <g id="Group_40" data-name="Group 40" transform="translate(0 29.694)">
            <line id="Line_8" data-name="Line 8" x1="81.096" transform="translate(1.331 2.662)" fill="none" stroke="#ffb701" stroke-miterlimit="10" stroke-width="1.497"/>
            <g id="Group_39" data-name="Group 39" transform="translate(0 0)">
              <rect id="Rectangle_15" data-name="Rectangle 15" width="6.505" height="6.505" transform="translate(39.241 -1)" fill="#122832"/>
              <rect id="Rectangle_16" data-name="Rectangle 16" width="4.505" height="4.505" transform="translate(80.276)" fill="#122832"/>
              <rect id="Rectangle_17" data-name="Rectangle 17" width="4.505" height="4.505" transform="translate(0 0)" fill="#122832"/>
            </g>
          </g>
        </g>
      </g>
    </g>
  </g>
</svg>