<svg xmlns="http://www.w3.org/2000/svg" xmlns:xlink="http://www.w3.org/1999/xlink" width="31.28" height="31.28" viewBox="0 0 31.28 31.28">
  <defs>
    <clipPath id="clip-path">
      <rect id="Rectangle_34" data-name="Rectangle 34" width="15" height="14" transform="translate(-0.4 0.48)" fill="#596fa4" stroke="#707070" stroke-width="1"/>
    </clipPath>
  </defs>
  <g id="Group_in56" data-name="Group in56" transform="translate(0)">
    <path id="__TEMP__SVG__" d="M15.64,2.81,14.082,2.8q-1.415-.01-2.149,0T9.968,2.86a16.06,16.06,0,0,0-2.1.2,8.093,8.093,0,0,0-1.455.378A5.326,5.326,0,0,0,3.442,6.415a8.172,8.172,0,0,0-.377,1.456,16.06,16.06,0,0,0-.2,2.1Q2.811,11.2,2.8,11.934t0,2.149q.01,1.415.01,1.558T2.8,17.2q-.01,1.415,0,2.149t.061,1.965a16.06,16.06,0,0,0,.2,2.1,8.124,8.124,0,0,0,.377,1.455,5.326,5.326,0,0,0,2.973,2.973,8.172,8.172,0,0,0,1.456.377,16.061,16.061,0,0,0,2.1.2q1.232.05,1.965.061t2.149,0l1.558-.01,1.558.01q1.415.01,2.149,0t1.965-.061a16.058,16.058,0,0,0,2.1-.2,8.173,8.173,0,0,0,1.456-.377,5.326,5.326,0,0,0,2.973-2.973,8.172,8.172,0,0,0,.377-1.456,16.06,16.06,0,0,0,.2-2.1q.05-1.232.061-1.965t0-2.149q-.01-1.415-.01-1.558t.01-1.558q.01-1.415,0-2.149T28.42,9.967a16.059,16.059,0,0,0-.2-2.1,8.016,8.016,0,0,0-.379-1.455,5.326,5.326,0,0,0-2.973-2.973,8.172,8.172,0,0,0-1.456-.377,16.06,16.06,0,0,0-2.1-.2q-1.232-.05-1.965-.061T17.2,2.8l-1.558.01ZM31.28,15.64q0,4.663-.1,6.456a9.552,9.552,0,0,1-2.525,6.558A9.552,9.552,0,0,1,22.1,31.178q-1.793.1-6.456.1t-6.456-.1a9.552,9.552,0,0,1-6.558-2.525A9.552,9.552,0,0,1,.1,22.1Q0,20.3,0,15.64T.1,9.184A9.552,9.552,0,0,1,2.627,2.627,9.552,9.552,0,0,1,9.184.1Q10.977,0,15.64,0T22.1.1a9.552,9.552,0,0,1,6.558,2.525,9.552,9.552,0,0,1,2.525,6.558Q31.28,10.977,31.28,15.64Z" transform="translate(0)" fill="#596fa4"/>
    <g id="Mask_Group_5" data-name="Mask Group 5" transform="translate(7.857 8.16)" clip-path="url(#clip-path)">
      <g id="__TEMP__SVG__2" data-name="__TEMP__SVG__" transform="translate(0.388 -0.08)">
        <path id="Path_1065" data-name="Path 1065" d="M11.241,9.531A1.783,1.783,0,1,1,9.458,7.749,1.783,1.783,0,0,1,11.241,9.531Z" transform="translate(-7.675 -7.749)" fill="#596fa4"/>
        <path id="Path_1066" data-name="Path 1066" d="M13.5,23.74v9.891h3.071V28.739c0-1.291.243-2.54,1.843-2.54,1.578,0,1.6,1.475,1.6,2.622v4.81h3.072V28.207c0-2.664-.574-4.712-3.688-4.712a3.229,3.229,0,0,0-2.907,1.6h-.041V23.739H13.5Zm-5,0h3.076v9.891H8.5Z" transform="translate(-8.255 -18.824)" fill="#596fa4"/>
      </g>
    </g>
  </g>
</svg>
