<svg xmlns="http://www.w3.org/2000/svg" xmlns:xlink="http://www.w3.org/1999/xlink" width="32" height="32" viewBox="0 0 32 32">
  <defs>
    <clipPath id="clip-path">
      <rect id="Rectangle_35" data-name="Rectangle 35" width="32" height="32" transform="translate(-0.44 -0.36)" fill="#a45959" stroke="#707070" stroke-width="1"/>
    </clipPath>
  </defs>
  <g id="mail" transform="translate(0.44 0.36)" clip-path="url(#clip-path)">
    <path id="__TEMP__SVG__" d="M39.245,8.709a1.3,1.3,0,0,0-1.368-.3L9.205,18.835a1.3,1.3,0,0,0,0,2.437l12.511,5,5,12.511a1.257,1.257,0,0,0,2.371-.039L39.518,10.077a1.3,1.3,0,0,0-.273-1.368ZM27.893,34.657l-3.636-9.123L30.5,19.292l-1.837-1.837-6.295,6.295L13.3,20.061l22.846-8.249Z" transform="translate(-8.517 -8.33)" fill="#a45959"/>
  </g>
</svg>
