<svg xmlns="http://www.w3.org/2000/svg" xmlns:xlink="http://www.w3.org/1999/xlink" width="34" height="34" viewBox="0 0 34 34">
  <defs>
    <clipPath id="clip-path">
      <rect id="Rectangle_32" data-name="Rectangle 32" width="34" height="34" transform="translate(0 0)" fill="#417a68" stroke="#707070" stroke-width="1"/>
    </clipPath>
  </defs>
  <g id="whatsapp" transform="translate(0 0)" clip-path="url(#clip-path)">
    <path id="__TEMP__SVG__" d="M21.644,19.125a10.032,10.032,0,0,1,2.143.967,9.52,9.52,0,0,1,1.967,1.164.932.932,0,0,1,.044.329,4.629,4.629,0,0,1-.374,1.67,2.949,2.949,0,0,1-1.56,1.44,5.2,5.2,0,0,1-2.241.583,11.871,11.871,0,0,1-4.175-1.362,12.528,12.528,0,0,1-3.736-2.593,28.98,28.98,0,0,1-3.252-4.066A7.684,7.684,0,0,1,8.9,12.994v-.176a4.86,4.86,0,0,1,1.626-3.472,1.662,1.662,0,0,1,1.143-.483,3.472,3.472,0,0,1,.4.033,3.533,3.533,0,0,0,.417.033.9.9,0,0,1,.582.143,1.585,1.585,0,0,1,.341.6q.176.439.725,1.934a13.058,13.058,0,0,1,.55,1.649,2.233,2.233,0,0,1-.758,1.264q-.758.8-.759,1.021a.626.626,0,0,0,.109.329,9.907,9.907,0,0,0,2.241,3.011A14.024,14.024,0,0,0,18.83,21.1a.973.973,0,0,0,.483.154q.329,0,1.187-1.066t1.143-1.066Zm-4.46,11.646a13.433,13.433,0,0,0,5.351-1.1,13.59,13.59,0,0,0,7.35-7.35,13.58,13.58,0,0,0,0-10.7,13.59,13.59,0,0,0-7.35-7.35,13.58,13.58,0,0,0-10.7,0,13.59,13.59,0,0,0-7.35,7.35A13.664,13.664,0,0,0,6.021,25.058l-1.735,5.12L9.6,28.486a13.511,13.511,0,0,0,7.581,2.285ZM17.184.4a16.1,16.1,0,0,1,6.427,1.318,16.378,16.378,0,0,1,8.823,8.823,16.325,16.325,0,0,1,0,12.854,16.378,16.378,0,0,1-8.823,8.823,16.091,16.091,0,0,1-6.427,1.318,16.315,16.315,0,0,1-8.021-2.066L0,34.419l2.988-8.9A16.473,16.473,0,0,1,1.934,10.544a16.378,16.378,0,0,1,8.823-8.823A16.073,16.073,0,0,1,17.184.4Z" transform="translate(0.116 -0.403)" fill="#417a68"/>
  </g>
</svg>
